<svg xmlns="http://www.w3.org/2000/svg" xmlns:xlink="http://www.w3.org/1999/xlink" preserveAspectRatio="xMidYMid" width="512" height="400" viewBox="0 0 512 400">
  <defs>
    <style>
      .cls-1, .cls-4 {
        fill: #a5a5a5;
        fill-rule: evenodd;
      }

      .cls-2, .cls-3 {
        font-size: 36px;
      }

      .cls-3 {
        fill: #fff;
        font-family: "BrandonGrotesque-Light";
      }

      .cls-4 {
        stroke: #fff;
        stroke-linejoin: round;
        stroke-width: 4px;
      }
    </style>
  </defs>
  <path d="M0.000,512.000 L0.000,0.000 L512.000,0.000 L512.000,512.000 L0.000,512.000 Z" class="cls-1"/>
  <g>
    <text transform="translate(155 335) scale(0.9 0.9)" class="cls-2"><tspan class="cls-3">ROCKET APP</tspan></text>
    <g>
      <path d="M320.896,107.772 L298.692,190.422 L323.996,240.341 L316.025,270.011 L284.268,244.110 L282.181,251.880 L271.557,249.041 L272.011,264.305 L209.683,247.648 L218.436,234.845 L206.396,231.627 L208.483,223.857 L167.997,230.451 L175.968,200.781 L222.907,170.169 L244.957,88.093 C244.957,88.093 245.002,87.909 245.091,87.591 L245.111,87.519 L245.112,87.519 C246.400,82.996 256.583,52.225 296.075,48.991 C300.488,48.629 328.961,73.085 320.866,107.764 L320.896,107.772 Z" class="cls-4"/>
      <path d="M285.445,89.969 C293.269,92.060 297.911,100.080 295.815,107.883 C293.719,115.686 285.677,120.317 277.854,118.226 C270.031,116.135 265.388,108.115 267.484,100.312 C269.580,92.509 277.622,87.879 285.445,89.969 Z" class="cls-4"/>
    </g>
  </g>
</svg>
