<svg xmlns="http://www.w3.org/2000/svg" xmlns:xlink="http://www.w3.org/1999/xlink" preserveAspectRatio="xMidYMid" width="512" height="400" viewBox="0 0 512 400">
  <defs>
    <style>
      .cls-1, .cls-3, .cls-5 {
        fill: #757575;
      }

      .cls-1, .cls-2 {
        fill-rule: evenodd;
      }

      .cls-2, .cls-7 {
        fill: #fff;
      }

      .cls-3, .cls-5 {
        stroke: #fff;
      }

      .cls-3, .cls-4, .cls-5 {
        stroke-linejoin: round;
      }

      .cls-3 {
        stroke-width: 4px;
      }

      .cls-4 {
        stroke: #757575;
        stroke-width: 12px;
        fill: none;
      }

      .cls-5 {
        stroke-width: 5px;
      }

      .cls-6, .cls-7 {
        font-size: 36px;
      }

      .cls-7 {
        font-family: "BrandonGrotesque-Light";
      }
    </style>
  </defs>
  <path d="M0.000,512.000 L0.000,0.000 L512.000,0.000 L512.000,512.000 L0.000,512.000 Z" class="cls-1"/>
  <g>
    <path d="M208.500,249.000 L296.500,249.000 C297.881,249.000 299.000,250.119 299.000,251.500 C299.000,252.881 297.881,254.000 296.500,254.000 L208.500,254.000 C207.119,254.000 206.000,252.881 206.000,251.500 C206.000,250.119 207.119,249.000 208.500,249.000 Z" class="cls-2"/>
    <path d="M312.181,37.447 C312.895,37.027 313.814,37.266 314.234,37.980 L323.353,53.500 C323.772,54.214 323.533,55.133 322.819,55.553 C322.105,55.973 321.186,55.734 320.766,55.020 L311.647,39.500 C311.228,38.786 311.467,37.867 312.181,37.447 Z" class="cls-2"/>
    <path d="M414.053,49.702 C414.597,50.312 414.555,51.273 413.959,51.848 L401.010,64.360 C400.414,64.935 399.491,64.908 398.947,64.298 C398.403,63.688 398.445,62.727 399.041,62.152 L411.990,49.640 C412.586,49.065 413.509,49.092 414.053,49.702 Z" class="cls-2"/>
    <path d="M428.123,170.210 C427.766,170.944 426.861,171.271 426.101,170.939 L409.606,163.722 C408.846,163.390 408.520,162.525 408.877,161.790 C409.234,161.056 410.139,160.729 410.899,161.061 L427.394,168.278 C428.154,168.610 428.480,169.475 428.123,170.210 Z" class="cls-2"/>
    <path d="M445.961,108.056 C446.001,108.872 445.366,109.594 444.540,109.668 L426.608,111.287 C425.783,111.361 425.080,110.760 425.039,109.944 C424.999,109.128 425.634,108.406 426.460,108.332 L444.392,106.713 C445.217,106.639 445.920,107.240 445.961,108.056 Z" class="cls-2"/>
    <path d="M358.515,28.497 C359.332,28.531 359.992,29.230 359.991,30.059 L359.965,48.064 C359.964,48.893 359.301,49.537 358.485,49.503 C357.668,49.469 357.008,48.770 357.009,47.941 L357.035,29.936 C357.036,29.107 357.699,28.463 358.515,28.497 Z" class="cls-2"/>
    <rect x="128" y="86" width="249" height="147" rx="20" ry="20" class="cls-3"/>
    <ellipse cx="345" cy="122.5" rx="55" ry="53.5" class="cls-4"/>
    <circle cx="345.5" cy="121.5" r="51.5" class="cls-5"/>
    <path d="M345.500,173.000 C340.136,173.000 334.965,172.178 330.103,170.657 C326.008,181.374 315.657,189.000 303.500,189.000 C287.760,189.000 275.000,176.240 275.000,160.500 C275.000,147.594 283.584,136.705 295.351,133.198 C294.477,129.438 294.000,125.526 294.000,121.500 C294.000,93.057 317.057,70.000 345.500,70.000 C373.943,70.000 397.000,93.057 397.000,121.500 C397.000,149.943 373.943,173.000 345.500,173.000 Z" class="cls-1"/>
    <path d="M292.343,142.373 L320.627,170.657 C321.408,171.438 321.408,172.704 320.627,173.485 C319.846,174.266 318.580,174.266 317.799,173.485 L289.515,145.201 C288.734,144.420 288.734,143.154 289.515,142.373 C290.296,141.592 291.562,141.592 292.343,142.373 Z" class="cls-2"/>
    <path d="M285.272,149.444 L313.556,177.728 C314.337,178.509 314.337,179.775 313.556,180.556 C312.775,181.337 311.509,181.337 310.728,180.556 L282.444,152.272 C281.663,151.491 281.663,150.225 282.444,149.444 C283.225,148.663 284.491,148.663 285.272,149.444 Z" class="cls-2"/>
    <path d="M282.407,160.721 L302.279,180.593 C303.040,181.354 303.040,182.587 302.279,183.348 L302.206,183.421 C301.445,184.182 300.212,184.182 299.451,183.421 L279.579,163.549 C278.818,162.788 278.818,161.555 279.579,160.794 L279.652,160.721 C280.413,159.960 281.646,159.960 282.407,160.721 Z" class="cls-2"/>
    <text x="166" y="332" class="cls-6"><tspan class="cls-7">SMART-TV</tspan></text>
  </g>
</svg>
